<?xml version="1.0"?>
<svg xmlns="http://www.w3.org/2000/svg" viewBox="0 0 24 24">
    <path d="M 9.5 2 C 8.1192881 2 7 3.1192881 7 4.5 C 7 5.8807119 8.1192881 7 9.5 7 C 10.880712 7 12 5.8807119 12 4.5 C 12 3.1192881 10.880712 2 9.5 2 z M 9.5 8 C 6.082 8 5 10 5 10 L 5 11 L 14 11 L 14 10 C 14 10 12.918 8 9.5 8 z M 17.5 8 C 17.223858 8 17 8.2238576 17 8.5 C 17 8.7761424 17.223858 9 17.5 9 C 17.776142 9 18 8.7761424 18 8.5 C 18 8.2238576 17.776142 8 17.5 8 z M 17.5 9.5 C 16.672 9.5 16 10.172 16 11 L 19 11 C 19 10.172 18.328 9.5 17.5 9.5 z M 2 12 L 2 14 L 22 14 L 22 12 L 2 12 z M 3 15 L 3 22 L 21 22 L 21 15 L 3 15 z"/>
</svg>
