<?xml version="1.0"?>
<svg xmlns="http://www.w3.org/2000/svg" width="24" height="24" viewBox="0 0 24 24">
    <path d="M 9.875 0.0625 C 6.8996826 0.00073242188 4.98125 2.5125 5.1875 5.8125 C 6.4875 2.5125 10.7 2.10625 12.5 3.90625 C 8.3 3.40625 2.49375 6.40625 6.59375 14.90625 C 7.39375 8.50625 12.3 6.4875 14.5 6.1875 C 17.5 6.3875 21.4875 9.7125 21.6875 14.8125 C 28.0875 6.5125 17.90625 3.50625 15.40625 4.40625 C 16.00625 3.10625 19.49375 2 23.09375 5 C 21.79375 -3.6 14.5 1.90625 14.5 1.90625 C 12.8125 0.65625 11.227417 0.090576172 9.875 0.0625 z M 14.59375 7.1875 L 13.3125 7.8125 C 13.1125 16.8125 9.00625 19.9 6.40625 21 L 6.90625 21 C 9.50625 21 11.39375 20.40625 13.09375 19.90625 C 13.19375 19.90625 13.30625 19.8125 13.40625 19.8125 C 16.60625 15.8125 15.59375 7.8125 15.59375 7.8125 L 14.59375 7.1875 z M 0.09375 20 C 0.09375 20 2.2875 24 7.6875 24 C 12.4875 24 15.3875 22 18.6875 22 C 22.6875 22 24.09375 24 24.09375 24 C 24.09375 24 22 20 17.5 20 C 14.5 20 11.9 22 7 22 C 2 22 0.09375 20 0.09375 20 z"/>
</svg>
