<?xml version="1.0"?>
<svg xmlns="http://www.w3.org/2000/svg" width="50" height="50" viewBox="0 0 50 50">
    <path d="M 6 0 C 4.346 0 3 1.346 3 3 L 3 11 C 3 12.979 3.22375 14.2275 3.46875 15.5625 C 3.72675 16.9765 4 18.451 4 21 C 4 23.498 3.748 24.392 3.5 25.25 C 3.256 26.099 3 26.971 3 29 L 3 38 C 3 39.654 4.346 41 6 41 L 16 41 C 17.654 41 19 39.654 19 38 L 19 29 C 19 26.971 18.744 26.099 18.5 25.25 C 18.252 24.392 18 23.498 18 21 C 18 18.451 18.27325 16.9765 18.53125 15.5625 C 18.77625 14.2275 19 12.979 19 11 L 19 3 C 19 1.346 17.654 0 16 0 L 6 0 z M 23 0 C 21.346 0 20 1.346 20 3 L 20 38 C 20 39.654 21.346 41 23 41 L 43 41 C 45.229 41 49 36.577 49 20 C 49 1.442 44.407 0 43 0 L 23 0 z M 27 5 L 41 5 C 41.553 5 42 5.448 42 6 L 42 14 C 42 14.552 41.553 15 41 15 L 27 15 C 26.447 15 26 14.552 26 14 L 26 6 C 26 5.448 26.447 5 27 5 z M 27 17 L 29 17 C 29.553 17 30 17.447 30 18 L 30 20 C 30 20.553 29.553 21 29 21 L 27 21 C 26.447 21 26 20.553 26 20 L 26 18 C 26 17.447 26.447 17 27 17 z M 33 17 L 35 17 C 35.553 17 36 17.447 36 18 L 36 20 C 36 20.553 35.553 21 35 21 L 33 21 C 32.447 21 32 20.553 32 20 L 32 18 C 32 17.447 32.447 17 33 17 z M 39 17 L 41 17 C 41.553 17 42 17.447 42 18 L 42 20 C 42 20.553 41.553 21 41 21 L 39 21 C 38.447 21 38 20.553 38 20 L 38 18 C 38 17.447 38.447 17 39 17 z M 27 23 L 29 23 C 29.553 23 30 23.447 30 24 L 30 26 C 30 26.553 29.553 27 29 27 L 27 27 C 26.447 27 26 26.553 26 26 L 26 24 C 26 23.447 26.447 23 27 23 z M 33 23 L 35 23 C 35.553 23 36 23.447 36 24 L 36 26 C 36 26.553 35.553 27 35 27 L 33 27 C 32.447 27 32 26.553 32 26 L 32 24 C 32 23.447 32.447 23 33 23 z M 39 23 L 41 23 C 41.553 23 42 23.447 42 24 L 42 26 C 42 26.553 41.553 27 41 27 L 39 27 C 38.447 27 38 26.553 38 26 L 38 24 C 38 23.447 38.447 23 39 23 z M 27 29 L 29 29 C 29.553 29 30 29.447 30 30 L 30 32 C 30 32.553 29.553 33 29 33 L 27 33 C 26.447 33 26 32.553 26 32 L 26 30 C 26 29.447 26.447 29 27 29 z M 33 29 L 35 29 C 35.553 29 36 29.447 36 30 L 36 32 C 36 32.553 35.553 33 35 33 L 33 33 C 32.447 33 32 32.553 32 32 L 32 30 C 32 29.447 32.447 29 33 29 z M 39 29 L 41 29 C 41.553 29 42 29.447 42 30 L 42 32 C 42 32.553 41.553 33 41 33 L 39 33 C 38.447 33 38 32.553 38 32 L 38 30 C 38 29.447 38.447 29 39 29 z M 11 42 C 11 46.411 14.589 50 19 50 L 20 50 C 24.411 50 28 46.411 28 42 L 26 42 C 26 45.309 23.309 48 20 48 L 19 48 C 15.691 48 13 45.309 13 42 L 11 42 z"/>
</svg>
